<svg xmlns="http://www.w3.org/2000/svg" width="1160" height="300" fill="none" aria-label="awesome-free-ai-coding — legal free LLM APIs and coding agents, probe-verified" role="img" viewBox="0 0 1160 300"><defs><linearGradient id="sweep" x1="150" x2="255" y1="150" y2="45" gradientUnits="userSpaceOnUse"><stop offset="0" stop-color="#3fb950" stop-opacity=".5"/><stop offset="1" stop-color="#3fb950" stop-opacity="0"/></linearGradient><linearGradient id="accent" x1="300" x2="1100" y1="0" y2="0" gradientUnits="userSpaceOnUse"><stop offset="0" stop-color="#3fb950"/><stop offset="1" stop-color="#58a6ff"/></linearGradient></defs><rect width="1158" height="298" x="1" y="1" fill="#0d1117" stroke="#30363d" stroke-width="2" rx="16"/><g><circle cx="150" cy="150" r="105" stroke="#3fb950" stroke-opacity=".25" stroke-width="2"/><circle cx="150" cy="150" r="70" stroke="#3fb950" stroke-opacity=".35" stroke-width="2"/><circle cx="150" cy="150" r="35" stroke="#3fb950" stroke-opacity=".5" stroke-width="2"/><line x1="45" x2="255" y1="150" y2="150" stroke="#3fb950" stroke-opacity=".15" stroke-width="2"/><line x1="150" x2="150" y1="45" y2="255" stroke="#3fb950" stroke-opacity=".15" stroke-width="2"/><path fill="url(#sweep)" d="M150 150 L255 45 A148.5 148.5 0 0 0 150 1.5 Z" transform="translate(0,0) scale(0.707) translate(62,62)"/><line x1="150" x2="224" y1="150" y2="76" stroke="#3fb950" stroke-linecap="round" stroke-width="3"/><circle cx="150" cy="150" r="5" fill="#3fb950"/><circle cx="196" cy="118" r="6" fill="#3fb950"/><circle cx="112" cy="102" r="5" fill="#3fb950"/><circle cx="185" cy="197" r="5" fill="#58a6ff"/><circle cx="93" cy="182" r="4" fill="#f85149" fill-opacity=".8"/></g><text x="300" y="135" fill="#e6edf3" font-family="ui-monospace, SFMono-Regular, Menlo, Consolas, monospace" font-size="52" font-weight="700">awesome-free-ai-coding</text><rect width="640" height="5" x="302" y="158" fill="url(#accent)" rx="2.5"/><text x="300" y="205" fill="#8b949e" font-family="-apple-system, 'Segoe UI', Helvetica, Arial, sans-serif" font-size="24">Legal free LLM APIs &amp; coding agents for developers</text><text x="300" y="240" fill="#6e7781" font-family="-apple-system, 'Segoe UI', Helvetica, Arial, sans-serif" font-size="19">self-updating · probe-verified twice a week · dead offers auto-archived</text></svg>