<svg xmlns="http://www.w3.org/2000/svg" width="1280" height="640" fill="none" viewBox="0 0 1280 640"><defs><linearGradient id="bg" x1="0" x2="1280" y1="0" y2="640" gradientUnits="userSpaceOnUse"><stop offset="0" stop-color="#0d1117"/><stop offset="1" stop-color="#161b22"/></linearGradient><linearGradient id="sweep" x1="320" x2="530" y1="320" y2="110" gradientUnits="userSpaceOnUse"><stop offset="0" stop-color="#3fb950" stop-opacity=".5"/><stop offset="1" stop-color="#3fb950" stop-opacity="0"/></linearGradient><linearGradient id="accent" x1="600" x2="1220" y1="0" y2="0" gradientUnits="userSpaceOnUse"><stop offset="0" stop-color="#3fb950"/><stop offset="1" stop-color="#58a6ff"/></linearGradient></defs><rect width="1280" height="640" fill="url(#bg)"/><g><circle cx="320" cy="320" r="210" stroke="#3fb950" stroke-opacity=".22" stroke-width="3"/><circle cx="320" cy="320" r="140" stroke="#3fb950" stroke-opacity=".32" stroke-width="3"/><circle cx="320" cy="320" r="70" stroke="#3fb950" stroke-opacity=".45" stroke-width="3"/><line x1="110" x2="530" y1="320" y2="320" stroke="#3fb950" stroke-opacity=".14" stroke-width="3"/><line x1="320" x2="320" y1="110" y2="530" stroke="#3fb950" stroke-opacity=".14" stroke-width="3"/><path fill="url(#sweep)" d="M320 320 L468 172 A209 209 0 0 0 320 111 Z"/><line x1="320" x2="468" y1="320" y2="172" stroke="#3fb950" stroke-linecap="round" stroke-width="5"/><circle cx="320" cy="320" r="9" fill="#3fb950"/><circle cx="412" cy="256" r="11" fill="#3fb950"/><circle cx="244" cy="224" r="9" fill="#3fb950"/><circle cx="390" cy="414" r="9" fill="#58a6ff"/><circle cx="206" cy="384" r="7" fill="#f85149" fill-opacity=".8"/></g><text x="600" y="255" fill="#e6edf3" font-family="DejaVu Sans Mono, ui-monospace, Menlo, monospace" font-size="58" font-weight="700">awesome-free-</text><text x="600" y="325" fill="#e6edf3" font-family="DejaVu Sans Mono, ui-monospace, Menlo, monospace" font-size="58" font-weight="700">ai-coding</text><rect width="560" height="6" x="602" y="352" fill="url(#accent)" rx="3"/><text x="600" y="410" fill="#8b949e" font-family="DejaVu Sans, -apple-system, 'Segoe UI', Arial, sans-serif" font-size="30">Legal free LLM APIs &amp; coding agents</text><text x="600" y="455" fill="#6e7781" font-family="DejaVu Sans, -apple-system, 'Segoe UI', Arial, sans-serif" font-size="24">self-updating · probe-verified twice a week</text><text x="600" y="493" fill="#6e7781" font-family="DejaVu Sans, -apple-system, 'Segoe UI', Arial, sans-serif" font-size="24">dead offers auto-archived</text></svg>