<svg xmlns="http://www.w3.org/2000/svg" width="600" height="820" viewBox="0 0 600 820" role="img" aria-labelledby="title">
<title id="title">awesome-free-ai-coding — 85 live offers, 81 need no card, 150 free models, 17 strong models; every offer probed twice a week; one dot per live offer</title>
<style>.card{fill:#ffffff;stroke:#d1d9e0}.t{fill:#1f2328}.m{fill:#59636e}.ring{stroke:#1a7f37}.hub{fill:#1a7f37}.beam{stroke:#1a7f37}.s0,.s1,.g0,.g1{stop-color:#1a7f37}.a0{stop-color:#1a7f37}.a1{stop-color:#0969da}.dot.agents,.key.agents{fill:#1a7f37}.rim.agents{stroke:#1a7f37}.dot.apis,.key.apis{fill:#0969da}.rim.apis{stroke:#0969da}.dot.trials,.key.trials{fill:#9a6700}.rim.trials{stroke:#9a6700}.dot.aggregators,.key.aggregators{fill:#8250df}.rim.aggregators{stroke:#8250df}@media (prefers-color-scheme: dark) {.card{fill:#0d1117;stroke:#3d444d}.t{fill:#f0f6fc}.m{fill:#9198a1}.ring{stroke:#3fb950}.hub{fill:#3fb950}.beam{stroke:#3fb950}.s0,.s1,.g0,.g1{stop-color:#3fb950}.a0{stop-color:#3fb950}.a1{stop-color:#4493f8}.dot.agents,.key.agents{fill:#3fb950}.rim.agents{stroke:#3fb950}.dot.apis,.key.apis{fill:#4493f8}.rim.apis{stroke:#4493f8}.dot.trials,.key.trials{fill:#d29922}.rim.trials{stroke:#d29922}.dot.aggregators,.key.aggregators{fill:#ab7df8}.rim.aggregators{stroke:#ab7df8}}.rim{fill:none}.s0{stop-opacity:.5}.s1,.g1{stop-opacity:0}.g0{stop-opacity:.12}.dot{opacity:.45;animation:ping 6s linear infinite}@keyframes ping{0%,4%{opacity:1}55%,100%{opacity:.45}}.turning{animation:turn 6s linear infinite}@keyframes turn{to{transform:rotate(360deg)}}@media (prefers-reduced-motion: reduce) {.dot { animation: none; opacity: 1 } .turning { animation: none }}</style>
<defs><linearGradient id="accent" gradientUnits="userSpaceOnUse" x1="0" y1="0" x2="540" y2="0"><stop class="a0" offset="0"/><stop class="a1" offset="1"/></linearGradient></defs>
<rect class="card" x="1" y="1" width="598" height="818" rx="18" stroke-width="2"/>
<defs><radialGradient id="glow"><stop class="g0" offset="0"/><stop class="g1" offset="1"/></radialGradient></defs>
<circle cx="300.0" cy="200.0" r="160.0" fill="url(#glow)"/>
<circle class="ring" cx="300.0" cy="200.0" r="53.3" fill="none" stroke-width="2" stroke-opacity=".5"/>
<circle class="ring" cx="300.0" cy="200.0" r="106.7" fill="none" stroke-width="2" stroke-opacity=".35"/>
<circle class="ring" cx="300.0" cy="200.0" r="160.0" fill="none" stroke-width="2" stroke-opacity=".25"/>
<path class="ring" d="M140.0 200.0H460.0M300.0 40.0V360.0" stroke-width="2" stroke-opacity=".15"/>
<path class="rim agents" d="M303.6 29.5A170.5 170.5 0 0 1 412.2 71.6" stroke-width="5" stroke-linecap="round"/>
<path class="rim apis" d="M417.5 76.4A170.5 170.5 0 0 1 322.4 369.0" stroke-width="5" stroke-linecap="round"/>
<path class="rim trials" d="M315.3 369.8A170.5 170.5 0 0 1 145.8 127.2" stroke-width="5" stroke-linecap="round"/>
<path class="rim aggregators" d="M149.0 120.8A170.5 170.5 0 0 1 296.4 29.5" stroke-width="5" stroke-linecap="round"/>
<defs><linearGradient id="sweep" gradientUnits="userSpaceOnUse" x1="300.0" y1="88.0" x2="228.0" y2="114.2"><stop class="s0" offset="0"/><stop class="s1" offset="1"/></linearGradient></defs>
<g class="turning" style="transform-origin:300.0px 200.0px"><path fill="url(#sweep)" d="M300.0 200.0L197.2 77.4A160.0 160.0 0 0 1 300.0 40.0Z"/><line class="beam" x1="300.0" y1="200.0" x2="300.0" y2="40.0" stroke-width="3" stroke-linecap="round"/></g>
<circle class="dot agents" cx="327.8" cy="141.0" r="5.5" style="animation-delay:0.42s"/>
<circle class="dot agents" cx="317.3" cy="119.3" r="5.5" style="animation-delay:0.20s"/>
<circle class="dot agents" cx="351.9" cy="121.1" r="5.5" style="animation-delay:0.56s"/>
<circle class="dot agents" cx="336.0" cy="102.3" r="5.5" style="animation-delay:0.34s"/>
<circle class="dot agents" cx="313.9" cy="88.4" r="5.5" style="animation-delay:0.12s"/>
<circle class="dot agents" cx="356.9" cy="94.4" r="5.5" style="animation-delay:0.47s"/>
<circle class="dot agents" cx="333.2" cy="77.7" r="5.5" style="animation-delay:0.25s"/>
<circle class="dot agents" cx="379.0" cy="93.0" r="5.5" style="animation-delay:0.61s"/>
<circle class="dot agents" cx="355.0" cy="72.4" r="5.5" style="animation-delay:0.39s"/>
<circle class="dot agents" cx="325.6" cy="57.8" r="5.5" style="animation-delay:0.17s"/>
<circle class="dot apis" cx="346.4" cy="229.6" r="5.5" style="animation-delay:2.04s"/>
<circle class="dot apis" cx="362.8" cy="183.7" r="5.5" style="animation-delay:1.26s"/>
<circle class="dot apis" cx="334.0" cy="263.0" r="5.5" style="animation-delay:2.53s"/>
<circle class="dot apis" cx="374.6" cy="219.4" r="5.5" style="animation-delay:1.74s"/>
<circle class="dot apis" cx="369.0" cy="156.0" r="5.5" style="animation-delay:0.96s"/>
<circle class="dot apis" cx="362.3" cy="259.4" r="5.5" style="animation-delay:2.23s"/>
<circle class="dot apis" cx="389.8" cy="194.6" r="5.5" style="animation-delay:1.44s"/>
<circle class="dot apis" cx="327.7" cy="289.3" r="5.5" style="animation-delay:2.71s"/>
<circle class="dot apis" cx="387.3" cy="242.0" r="5.5" style="animation-delay:1.93s"/>
<circle class="dot apis" cx="393.2" cy="163.5" r="5.5" style="animation-delay:1.14s"/>
<circle class="dot apis" cx="359.4" cy="284.2" r="5.5" style="animation-delay:2.41s"/>
<circle class="dot apis" cx="405.0" cy="214.2" r="5.5" style="animation-delay:1.63s"/>
<circle class="dot apis" cx="384.0" cy="131.0" r="5.5" style="animation-delay:0.84s"/>
<circle class="dot apis" cx="389.1" cy="266.7" r="5.5" style="animation-delay:2.11s"/>
<circle class="dot apis" cx="412.0" cy="179.7" r="5.5" style="animation-delay:1.33s"/>
<circle class="dot apis" cx="347.5" cy="306.1" r="5.5" style="animation-delay:2.60s"/>
<circle class="dot apis" cx="412.3" cy="238.3" r="5.5" style="animation-delay:1.81s"/>
<circle class="dot apis" cx="406.5" cy="142.7" r="5.5" style="animation-delay:1.03s"/>
<circle class="dot apis" cx="382.6" cy="291.4" r="5.5" style="animation-delay:2.30s"/>
<circle class="dot apis" cx="425.3" cy="201.8" r="5.5" style="animation-delay:1.51s"/>
<circle class="dot apis" cx="328.6" cy="324.2" r="5.5" style="animation-delay:2.78s"/>
<circle class="dot apis" cx="412.3" cy="264.6" r="5.5" style="animation-delay:2.00s"/>
<circle class="dot apis" cx="425.7" cy="161.2" r="5.5" style="animation-delay:1.21s"/>
<circle class="dot apis" cx="368.7" cy="314.5" r="5.5" style="animation-delay:2.48s"/>
<circle class="dot apis" cx="432.5" cy="228.0" r="5.5" style="animation-delay:1.70s"/>
<circle class="dot apis" cx="412.3" cy="120.9" r="5.5" style="animation-delay:0.91s"/>
<circle class="dot apis" cx="405.0" cy="291.4" r="5.5" style="animation-delay:2.18s"/>
<circle class="dot apis" cx="440.3" cy="185.1" r="5.5" style="animation-delay:1.40s"/>
<circle class="dot apis" cx="348.5" cy="334.4" r="5.5" style="animation-delay:2.67s"/>
<circle class="dot apis" cx="433.1" cy="256.6" r="5.5" style="animation-delay:1.88s"/>
<circle class="dot apis" cx="433.7" cy="140.4" r="5.5" style="animation-delay:1.10s"/>
<circle class="dot trials" cx="248.4" cy="220.2" r="5.5" style="animation-delay:4.14s"/>
<circle class="dot trials" cx="272.5" cy="259.6" r="5.5" style="animation-delay:3.41s"/>
<circle class="dot trials" cx="227.8" cy="192.8" r="5.5" style="animation-delay:4.60s"/>
<circle class="dot trials" cx="238.4" cy="248.3" r="5.5" style="animation-delay:3.86s"/>
<circle class="dot trials" cx="288.4" cy="282.4" r="5.5" style="animation-delay:3.13s"/>
<circle class="dot trials" cx="214.0" cy="216.8" r="5.5" style="animation-delay:4.32s"/>
<circle class="dot trials" cx="247.3" cy="274.9" r="5.5" style="animation-delay:3.59s"/>
<circle class="dot trials" cx="208.4" cy="173.6" r="5.5" style="animation-delay:4.77s"/>
<circle class="dot trials" cx="212.6" cy="246.0" r="5.5" style="animation-delay:4.04s"/>
<circle class="dot trials" cx="267.9" cy="296.8" r="5.5" style="animation-delay:3.31s"/>
<circle class="dot trials" cx="194.9" cy="201.2" r="5.5" style="animation-delay:4.49s"/>
<circle class="dot trials" cx="223.0" cy="275.8" r="5.5" style="animation-delay:3.76s"/>
<circle class="dot trials" cx="296.9" cy="310.9" r="5.5" style="animation-delay:3.03s"/>
<circle class="dot trials" cx="191.6" cy="234.0" r="5.5" style="animation-delay:4.21s"/>
<circle class="dot trials" cx="244.2" cy="302.0" r="5.5" style="animation-delay:3.48s"/>
<circle class="dot trials" cx="182.9" cy="180.0" r="5.5" style="animation-delay:4.66s"/>
<circle class="dot trials" cx="199.7" cy="268.1" r="5.5" style="animation-delay:3.93s"/>
<circle class="dot trials" cx="274.4" cy="321.0" r="5.5" style="animation-delay:3.20s"/>
<circle class="dot trials" cx="175.0" cy="215.5" r="5.5" style="animation-delay:4.38s"/>
<circle class="dot trials" cx="219.2" cy="299.5" r="5.5" style="animation-delay:3.65s"/>
<circle class="dot trials" cx="177.5" cy="155.3" r="5.5" style="animation-delay:4.83s"/>
<circle class="dot trials" cx="178.8" cy="253.5" r="5.5" style="animation-delay:4.10s"/>
<circle class="dot trials" cx="248.9" cy="324.5" r="5.5" style="animation-delay:3.37s"/>
<circle class="dot trials" cx="163.6" cy="192.2" r="5.5" style="animation-delay:4.55s"/>
<circle class="dot trials" cx="194.7" cy="290.2" r="5.5" style="animation-delay:3.82s"/>
<circle class="dot trials" cx="286.4" cy="340.0" r="5.5" style="animation-delay:3.09s"/>
<circle class="dot trials" cx="161.4" cy="233.2" r="5.5" style="animation-delay:4.28s"/>
<circle class="dot trials" cx="222.1" cy="321.6" r="5.5" style="animation-delay:3.54s"/>
<circle class="dot trials" cx="157.8" cy="165.5" r="5.5" style="animation-delay:4.73s"/>
<circle class="dot aggregators" cx="274.1" cy="144.9" r="5.5" style="animation-delay:5.58s"/>
<circle class="dot aggregators" cx="245.7" cy="148.3" r="5.5" style="animation-delay:5.23s"/>
<circle class="dot aggregators" cx="282.2" cy="117.2" r="5.5" style="animation-delay:5.80s"/>
<circle class="dot aggregators" cx="249.1" cy="122.6" r="5.5" style="animation-delay:5.44s"/>
<circle class="dot aggregators" cx="219.0" cy="142.3" r="5.5" style="animation-delay:5.09s"/>
<circle class="dot aggregators" cx="263.6" cy="100.9" r="5.5" style="animation-delay:5.66s"/>
<circle class="dot aggregators" cx="226.5" cy="116.7" r="5.5" style="animation-delay:5.31s"/>
<circle class="dot aggregators" cx="285.6" cy="84.6" r="5.5" style="animation-delay:5.88s"/>
<circle class="dot aggregators" cx="242.6" cy="93.4" r="5.5" style="animation-delay:5.53s"/>
<circle class="dot aggregators" cx="204.4" cy="118.4" r="5.5" style="animation-delay:5.17s"/>
<circle class="dot aggregators" cx="265.9" cy="74.6" r="5.5" style="animation-delay:5.75s"/>
<circle class="dot aggregators" cx="220.4" cy="92.1" r="5.5" style="animation-delay:5.39s"/>
<circle class="dot aggregators" cx="183.5" cy="126.1" r="5.5" style="animation-delay:5.04s"/>
<circle class="dot aggregators" cx="243.9" cy="69.8" r="5.5" style="animation-delay:5.61s"/>
<circle class="dot aggregators" cx="198.1" cy="96.3" r="5.5" style="animation-delay:5.26s"/>
<circle class="hub" cx="300.0" cy="200.0" r="6.5"/>
<text class="m" x="300.0" y="412" text-anchor="middle" font-family="-apple-system, BlinkMacSystemFont, 'Segoe UI', Helvetica, Arial, sans-serif" font-size="22"><tspan class="key agents">●</tspan> agents <tspan class="key apis">●</tspan> APIs <tspan class="key trials">●</tspan> trials <tspan class="key aggregators">●</tspan> aggregators</text>
<text class="t" x="300.0" y="478" text-anchor="middle" font-family="ui-monospace, SFMono-Regular, Menlo, Consolas, monospace" font-size="38" font-weight="700">awesome-free-ai-coding</text>
<rect x="100.0" y="494" width="400" height="5" rx="2.5" fill="url(#accent)"/>
<text class="t" x="300.0" y="540" text-anchor="middle" font-family="-apple-system, BlinkMacSystemFont, 'Segoe UI', Helvetica, Arial, sans-serif" font-size="26">Legal free LLM APIs &amp; coding agents</text>
<text class="m" x="300.0" y="574" text-anchor="middle" font-family="-apple-system, BlinkMacSystemFont, 'Segoe UI', Helvetica, Arial, sans-serif" font-size="22">probed twice a week</text>
<text class="t" x="165.0" y="668" text-anchor="middle" font-family="-apple-system, BlinkMacSystemFont, 'Segoe UI', Helvetica, Arial, sans-serif" font-size="60" font-weight="700">85</text>
<text class="m" x="165.0" y="700" text-anchor="middle" font-family="-apple-system, BlinkMacSystemFont, 'Segoe UI', Helvetica, Arial, sans-serif" font-size="22">live offers</text>
<text class="t" x="435.0" y="668" text-anchor="middle" font-family="-apple-system, BlinkMacSystemFont, 'Segoe UI', Helvetica, Arial, sans-serif" font-size="60" font-weight="700">81</text>
<text class="m" x="435.0" y="700" text-anchor="middle" font-family="-apple-system, BlinkMacSystemFont, 'Segoe UI', Helvetica, Arial, sans-serif" font-size="22">need no card</text>
<text class="t" x="165.0" y="772" text-anchor="middle" font-family="-apple-system, BlinkMacSystemFont, 'Segoe UI', Helvetica, Arial, sans-serif" font-size="60" font-weight="700">150</text>
<text class="m" x="165.0" y="804" text-anchor="middle" font-family="-apple-system, BlinkMacSystemFont, 'Segoe UI', Helvetica, Arial, sans-serif" font-size="22">free models</text>
<text class="t" x="435.0" y="772" text-anchor="middle" font-family="-apple-system, BlinkMacSystemFont, 'Segoe UI', Helvetica, Arial, sans-serif" font-size="60" font-weight="700">17</text>
<text class="m" x="435.0" y="804" text-anchor="middle" font-family="-apple-system, BlinkMacSystemFont, 'Segoe UI', Helvetica, Arial, sans-serif" font-size="22">strong models</text>
</svg>
